<svg viewBox="0 0 256 256" fill="none" xmlns="http://www.w3.org/2000/svg">
  <g filter="url(#filter0_d_1429_50)">
    <rect x="25" y="25" width="206" height="206" rx="46" fill="#FE5E00" />
  </g>
  <path
    d="M151.634 52.014C152.94 53.6392 153.605 55.8327 154.932 60.2142L184 156C173.082 150.316 161.363 146.336 149.248 144.198L130.325 80.0417C130.175 79.5288 129.864 79.0785 129.438 78.7582C129.011 78.438 128.493 78.2652 127.96 78.2658C127.428 78.2664 126.91 78.4404 126.484 78.7616C126.058 79.0828 125.748 79.5339 125.6 80.0471L106.903 144.165C94.7355 146.294 82.9646 150.281 72 155.985L101.205 60.194C102.542 55.8179 103.208 53.6284 104.513 52.0032C105.666 50.5726 107.164 49.4612 108.866 48.7742C110.789 48 113.075 48 117.638 48H138.501C143.067 48 145.353 48 147.283 48.7796C148.986 49.4664 150.483 50.5801 151.634 52.014Z"
    fill="#EEE7F4"
  />
  <path
    d="M155.989 160.008C151.072 164.149 141.256 166.972 129.952 166.972C116.082 166.972 104.45 162.719 101.366 157C100.264 160.278 100.016 164.027 100.016 166.427C100.016 166.427 99.2902 178.187 107.603 186.367C107.603 185.358 107.805 184.358 108.197 183.425C108.59 182.493 109.166 181.645 109.891 180.931C110.617 180.217 111.478 179.651 112.426 179.265C113.373 178.878 114.389 178.68 115.415 178.68C122.812 178.68 122.808 185.028 122.802 190.186V190.642C122.802 198.467 127.66 205.172 134.569 208C133.504 205.847 132.952 203.484 132.955 201.089C132.955 193.623 137.404 190.848 142.58 187.617C146.697 185.05 151.27 182.195 154.417 176.472C156.116 173.388 157.004 169.935 157 166.427C157.002 164.249 156.661 162.083 155.989 160.008Z"
    fill="#EEE7F4"
  />
  <path
    d="M155.989 160.008C151.072 164.149 141.256 166.972 129.952 166.972C116.082 166.972 104.45 162.719 101.366 157C100.264 160.278 100.016 164.027 100.016 166.427C100.016 166.427 99.2902 178.187 107.603 186.367C107.603 185.358 107.805 184.358 108.197 183.425C108.59 182.493 109.166 181.645 109.891 180.931C110.617 180.217 111.478 179.651 112.426 179.265C113.373 178.878 114.389 178.68 115.415 178.68C122.812 178.68 122.808 185.028 122.802 190.186V190.642C122.802 198.467 127.66 205.172 134.569 208C133.504 205.847 132.952 203.484 132.955 201.089C132.955 193.623 137.404 190.848 142.58 187.617C146.697 185.05 151.27 182.195 154.417 176.472C156.116 173.388 157.004 169.935 157 166.427C157.002 164.249 156.661 162.083 155.989 160.008Z"
    fill="#EEE7F4"
  />
  <defs>
    <filter
      id="filter0_d_1429_50"
      x="19.5"
      y="22.25"
      width="217"
      height="217"
      filterUnits="userSpaceOnUse"
      color-interpolation-filters="sRGB"
    >
      <feFlood flood-opacity="0" result="BackgroundImageFix" />
      <feColorMatrix
        in="SourceAlpha"
        type="matrix"
        values="0 0 0 0 0 0 0 0 0 0 0 0 0 0 0 0 0 0 127 0"
        result="hardAlpha"
      />
      <feOffset dy="2.75" />
      <feGaussianBlur stdDeviation="2.75" />
      <feColorMatrix
        type="matrix"
        values="0 0 0 0 0 0 0 0 0 0 0 0 0 0 0 0 0 0 0.28 0"
      />
      <feBlend
        mode="normal"
        in2="BackgroundImageFix"
        result="effect1_dropShadow_1429_50"
      />
      <feBlend
        mode="normal"
        in="SourceGraphic"
        in2="effect1_dropShadow_1429_50"
        result="shape"
      />
    </filter>
  </defs>
</svg>
