<svg viewBox="0 0 256 256" fill="none" xmlns="http://www.w3.org/2000/svg">
  <g filter="url(#filter0_d_1429_218)">
    <rect x="25" y="25" width="206" height="206" rx="46" fill="#FFD539" />
    <rect x="25" y="25" width="206" height="206" rx="46" fill="#FFD539" />
  </g>
  <path
    d="M163.851 68.5614C164.264 68.4455 164.675 68.3453 165.085 68.2606L166.299 69.751C166.21 70.0985 166.127 70.4483 166.052 70.8003C165.069 70.9791 164.104 71.2475 163.17 71.6023C163.353 70.5953 163.579 69.5817 163.851 68.5614ZM137.583 96.7713C129.178 110.138 124.542 123.952 125.903 131.411C140.4 133.92 155.245 133.598 169.62 130.461C178.871 128.442 187.754 125.001 195.955 120.263C197.336 119.469 198.594 118.478 199.691 117.322C190.104 114.927 181.316 110.045 174.21 103.167C169.83 99.2897 166.517 94.3503 164.588 88.8222C162.66 83.2941 162.181 77.3625 163.197 71.5956C152.366 77.2707 143.454 86.0305 137.583 96.7713ZM166.786 68.0334C158.154 96.357 188.744 112.778 200.838 114.876C205.687 115.718 201.438 120.189 197.296 122.622C174.89 135.002 148.808 138.96 123.748 133.783C118.065 116.988 145.961 70.0117 166.792 68L166.786 68.0334Z"
    fill="#1E1E1E"
  />
  <path
    d="M157.121 105.208C156.877 106.333 157.004 107.506 157.486 108.552C157.967 109.599 158.776 110.463 159.793 111.015C160.809 111.568 161.978 111.779 163.125 111.618C164.272 111.456 165.335 110.931 166.157 110.12C166.979 109.309 167.515 108.256 167.685 107.118C167.855 105.979 167.649 104.817 167.1 103.804C166.55 102.791 165.686 101.982 164.635 101.497C163.585 101.012 162.405 100.877 161.271 101.113C161.837 101.267 162.354 101.566 162.767 101.98C163.181 102.395 163.479 102.91 163.629 103.474C163.78 104.038 163.779 104.631 163.627 105.195C163.474 105.758 163.176 106.272 162.761 106.685C162.345 107.098 161.828 107.396 161.261 107.548C160.694 107.701 160.097 107.703 159.528 107.554C158.96 107.405 158.441 107.11 158.024 106.7C157.606 106.289 157.304 105.777 157.148 105.215L157.121 105.208ZM195.943 121C197.536 121 199.094 120.531 200.419 119.651C201.744 118.772 202.777 117.522 203.387 116.06C203.997 114.597 204.156 112.988 203.845 111.436C203.534 109.884 202.767 108.458 201.64 107.338C200.513 106.219 199.078 105.457 197.515 105.148C195.952 104.84 194.332 104.998 192.86 105.604C191.387 106.209 190.129 107.235 189.244 108.551C188.358 109.867 187.886 111.414 187.886 112.997C193.338 116.912 201.214 116.118 195.95 121H195.943Z"
    fill="#1E1E1E"
  />
  <path
    d="M123.457 207C125.251 185.977 118.601 176.441 106.816 157.382C95.0311 138.323 100.056 103.296 132.07 106.166C183.896 110.814 163.342 189.393 123.457 207Z"
    fill="#1E1E1E"
  />
  <path
    d="M96 200C105.06 180.771 102.183 169.266 97.8263 146.837C93.4692 124.408 110.48 93.1268 139.46 107.758C186.383 131.45 139.545 198.184 96 200Z"
    fill="#1E1E1E"
  />
  <path
    d="M72.0066 182.276C87.3742 167.904 88.6941 156.272 92.4547 134.052C96.2154 111.832 123.376 89.2858 145.734 113.328C181.941 152.262 113.984 196.515 72 182.27L72.0066 182.276Z"
    fill="#1E1E1E"
  />
  <path
    d="M56 158.13C75.7624 150.177 81.2243 139.713 92.8409 120.184C104.458 100.656 138.339 89.2732 150.796 119.983C170.976 169.706 90.5876 186.723 56 158.13Z"
    fill="#1E1E1E"
  />
  <path
    d="M51.0133 128.914C72.0621 128.555 80.8192 120.941 98.4729 107.218C116.127 93.4955 151.414 94.931 151.992 127.185C152.922 179.387 72.7465 166.93 51 128.914H51.0133Z"
    fill="#1E1E1E"
  />
  <path
    d="M55 101.116C74.9424 108.108 85.9888 104.122 107.653 97.6004C129.317 91.079 162.007 104.696 150.679 134.646C132.345 183.166 61.4577 143.76 55 101.116Z"
    fill="#1E1E1E"
  />
  <path
    d="M70.2211 76C86.1797 89.6293 97.9218 89.7211 120.485 91.1305C143.049 92.54 168.421 116.894 146.758 141.354C111.712 180.957 60.4271 118.71 70.2211 76Z"
    fill="#1E1E1E"
  />
  <path
    d="M92.715 56C102.696 74.792 113.684 79.1007 134.344 88.5839C155.004 98.0671 169.895 130.497 140.582 146.074C93.1779 171.295 67.8558 93.3155 92.715 56Z"
    fill="#1E1E1E"
  />
  <path
    d="M121.146 48C123.697 68.7709 132.282 76.6236 147.939 92.6195C163.595 108.615 165.822 143.658 133.399 147.634C80.8855 154.08 85.1151 73.5063 121.146 48Z"
    fill="#1E1E1E"
  />
  <path
    d="M149.061 50C144.034 70.3942 149.192 80.8334 157.995 101.466C166.797 122.099 156.402 155.745 124.961 147.813C74.0525 134.972 106.621 60.9499 149.061 50Z"
    fill="#1E1E1E"
  />
  <path
    d="M176 62.3292C147.686 84.0677 163.943 99.7749 163.943 141.306C163.943 179.347 145.176 164.549 118.434 145.586C75.1367 114.86 132.181 57.1269 176 62.3292Z"
    fill="#1E1E1E"
  />
  <path
    d="M163.376 131.118C163.218 129.804 163.097 128.486 163.012 127.165C162.587 122.488 162.033 117.824 161.349 113.177L161.157 112.02L162.696 111.852C163.653 111.73 164.561 111.37 165.333 110.806C166.105 110.242 166.714 109.493 167.101 108.633C167.489 107.772 167.642 106.829 167.546 105.894C167.449 104.959 167.106 104.065 166.551 103.296C165.347 102.016 163.706 101.205 161.933 101.015H160.827L162.002 102.099C162.349 102.339 162.635 102.653 162.839 103.017C163.042 103.381 163.158 103.786 163.177 104.2C163.2 104.832 163.048 105.459 162.736 106.015C162.424 106.571 161.964 107.034 161.404 107.357C160.614 107.705 160.559 107.671 160.381 106.688C159.008 99.6914 158.657 92.5411 159.336 85.4487C159.617 83.8641 160.008 82.2997 160.504 80.766L161.15 79V80.4449C161.264 81.9003 161.479 83.3464 161.796 84.7731C163.267 90.4534 165.934 95.7745 169.626 100.4C173.318 105.025 177.956 108.855 183.247 111.645C187.003 113.819 190.957 115.653 195.057 117.124C196.01 117.393 196.931 117.758 197.806 118.214C198.369 118.763 197.723 119.552 195.662 120.823C187.602 125.39 178.885 128.754 169.8 130.804C163.047 132.356 163.569 132.329 163.376 131.118Z"
    fill="white"
  />
  <defs>
    <filter
      id="filter0_d_1429_218"
      x="19.5"
      y="22.25"
      width="217"
      height="217"
      filterUnits="userSpaceOnUse"
      color-interpolation-filters="sRGB"
    >
      <feFlood flood-opacity="0" result="BackgroundImageFix" />
      <feColorMatrix
        in="SourceAlpha"
        type="matrix"
        values="0 0 0 0 0 0 0 0 0 0 0 0 0 0 0 0 0 0 127 0"
        result="hardAlpha"
      />
      <feOffset dy="2.75" />
      <feGaussianBlur stdDeviation="2.75" />
      <feColorMatrix
        type="matrix"
        values="0 0 0 0 0 0 0 0 0 0 0 0 0 0 0 0 0 0 0.28 0"
      />
      <feBlend
        mode="normal"
        in2="BackgroundImageFix"
        result="effect1_dropShadow_1429_218"
      />
      <feBlend
        mode="normal"
        in="SourceGraphic"
        in2="effect1_dropShadow_1429_218"
        result="shape"
      />
    </filter>
  </defs>
</svg>
