<svg viewBox="0 0 256 256" fill="none" xmlns="http://www.w3.org/2000/svg">
  <rect x="25" y="25" width="206" height="206" rx="46" fill="#4B32C3" />
  <path
    d="M192 162.543C192 163.762 191.264 164.891 190.203 165.501L129.25 200.543C128.725 200.842 128.131 201 127.526 201C126.921 201 126.327 200.842 125.802 200.543L64.8022 165.501C63.7422 164.891 63 163.763 63 162.543V92.4582C63 91.2378 63.7314 90.1108 64.7924 89.5002L125.742 54.458C126.266 54.1579 126.861 54 127.465 54C128.07 54 128.664 54.1579 129.189 54.458L190.192 89.5002C191.254 90.1108 192 91.2378 192 92.4582V162.543Z"
    fill="white"
  />
  <path
    d="M86.6094 100.04L126.391 76.4432C126.88 76.1529 127.435 76 128 76C128.565 76 129.12 76.1529 129.609 76.4432L169.391 100.04C169.88 100.33 170.286 100.748 170.568 101.25C170.851 101.753 171 102.323 171 102.903V150.097C171 151.277 170.386 152.369 169.391 152.96L129.609 176.557C129.12 176.847 128.565 177 128 177C127.435 177 126.88 176.847 126.391 176.557L86.6094 152.96C86.1202 152.67 85.714 152.252 85.4315 151.75C85.1489 151.247 85.0002 150.677 85 150.097V102.903C85.0008 101.721 85.6143 100.631 86.6094 100.04Z"
    fill="#8080F2"
  />
</svg>
