<svg viewBox="0 0 256 256" fill="none" xmlns="http://www.w3.org/2000/svg">
  <g filter="url(#filter0_d_1118_256)">
    <rect x="25" y="25" width="206" height="206" rx="46" fill="#E84D32" />
  </g>
  <path
    d="M71.0008 25L111.185 62.5032C114.645 61.3067 118.365 61.1219 121.922 61.9699C125.48 62.8178 128.732 64.6643 131.307 67.2991C133.882 69.9339 135.677 73.2509 136.488 76.8722C137.299 80.4935 137.092 84.2735 135.892 87.7814L164.134 116.485C168.355 115.011 172.946 115.052 177.142 116.601C181.337 118.15 184.884 121.113 187.191 124.997C189.497 128.881 190.425 133.451 189.819 137.945C189.213 142.44 187.11 146.588 183.861 149.698C180.611 152.808 176.411 154.693 171.96 155.037C167.51 155.382 163.077 154.166 159.401 151.593C155.725 149.019 153.028 145.243 151.759 140.893C150.49 136.544 150.726 131.884 152.427 127.689L126.053 100.883V171.412C130.048 173.424 133.245 176.766 135.11 180.883C136.975 184.999 137.397 189.64 136.304 194.034C135.211 198.427 132.671 202.308 129.105 205.029C125.54 207.75 121.165 209.147 116.709 208.988C112.253 208.829 107.985 207.123 104.616 204.154C101.247 201.185 98.981 197.133 98.1946 192.672C97.4082 188.212 98.1491 183.612 100.294 179.639C102.439 175.666 105.858 172.56 109.983 170.838V99.6611C107.597 98.6662 105.428 97.2012 103.601 95.3506C101.775 93.5 100.327 91.3004 99.3401 88.8785C98.3535 86.4565 97.8482 83.8602 97.8533 81.2389C97.8583 78.6176 98.3736 76.0232 99.3694 73.6052L54 28.0752"
    fill="white"
  />
  <defs>
    <filter
      id="filter0_d_1118_256"
      x="19.5"
      y="22.25"
      width="217"
      height="217"
      filterUnits="userSpaceOnUse"
      color-interpolation-filters="sRGB"
    >
      <feFlood flood-opacity="0" result="BackgroundImageFix" />
      <feColorMatrix
        in="SourceAlpha"
        type="matrix"
        values="0 0 0 0 0 0 0 0 0 0 0 0 0 0 0 0 0 0 127 0"
        result="hardAlpha"
      />
      <feOffset dy="2.75" />
      <feGaussianBlur stdDeviation="2.75" />
      <feColorMatrix
        type="matrix"
        values="0 0 0 0 0 0 0 0 0 0 0 0 0 0 0 0 0 0 0.28 0"
      />
      <feBlend
        mode="normal"
        in2="BackgroundImageFix"
        result="effect1_dropShadow_1118_256"
      />
      <feBlend
        mode="normal"
        in="SourceGraphic"
        in2="effect1_dropShadow_1118_256"
        result="shape"
      />
    </filter>
  </defs>
</svg>
