<svg viewBox="0 0 256 256" fill="none" xmlns="http://www.w3.org/2000/svg">
  <rect x="25" y="25" width="206" height="206" rx="46" fill="#F0DB4F" />
  <path
    d="M161.731 185.94C163.561 189.632 166.405 192.735 169.933 194.892C173.462 197.049 177.532 198.172 181.676 198.131C190.037 198.131 195.383 193.978 195.383 188.225C195.383 181.368 189.891 178.914 180.686 174.914L175.639 172.766C161.064 166.601 151.399 158.883 151.399 142.562C151.399 127.529 162.905 116.077 180.955 116.077C186.797 115.658 192.635 116.957 197.74 119.812C202.844 122.667 206.99 126.951 209.659 132.131L193.88 142.151C192.852 139.582 191.063 137.385 188.749 135.85C186.435 134.315 183.706 133.515 180.924 133.556C179.71 133.435 178.484 133.567 177.324 133.943C176.165 134.319 175.097 134.93 174.188 135.739C173.279 136.548 172.55 137.535 172.047 138.639C171.544 139.743 171.278 140.939 171.266 142.151C171.266 148.162 175.017 150.601 183.678 154.342L188.725 156.49C205.877 163.797 215.573 171.242 215.573 187.982C215.573 206.032 201.298 215.922 182.128 215.922C174.659 216.395 167.212 214.71 160.685 211.072C154.159 207.434 148.831 201.997 145.346 195.418L161.731 185.94ZM90.4309 187.677C93.599 193.262 96.4832 197.986 103.418 197.986C110.045 197.986 114.234 195.411 114.234 185.391V117.22H134.416V185.658C134.416 206.413 122.142 215.861 104.277 215.861C97.9618 216.204 91.6901 214.641 86.2863 211.377C80.8824 208.113 76.5993 203.301 74 197.574L90.4309 187.677Z"
    fill="#323330"
  />
</svg>
