<svg viewBox="0 0 256 256" fill="none" xmlns="http://www.w3.org/2000/svg">
  <g filter="url(#filter0_d_1145_444)">
    <rect x="25" y="25" width="206" height="206" rx="46" fill="#13A0E6" />
  </g>
  <g clip-path="url(#clip0_1145_444)">
    <path
      d="M195.641 175.934H59.8321C53.6805 175.934 48.4754 170.758 48.4754 164.641V90.2931C48.4754 84.176 53.6805 79 59.8321 79H195.168C201.319 79 206.525 84.176 206.525 90.2931V164.641C206.525 170.758 201.792 175.934 195.641 175.934ZM59.8321 86.5285C57.9392 86.5285 56.0463 88.4108 56.0463 90.2931V164.641C56.0463 166.993 57.9392 168.405 59.8321 168.405H195.168C197.534 168.405 198.954 166.523 198.954 164.641V90.2931C198.954 87.9406 197.061 86.5285 195.168 86.5285H59.8321ZM71.1888 153.347V101.586H86.3313L101.474 120.409L116.616 101.586H131.759V153.347H116.616V123.702L101.474 142.525L86.3313 123.702V153.347H71.1888ZM166.302 153.347L143.589 128.408H158.731V101.586H173.874V127.938H189.016L166.302 153.347Z"
      fill="white"
    />
  </g>
  <defs>
    <filter
      id="filter0_d_1145_444"
      x="19.5"
      y="22.25"
      width="217"
      height="217"
      filterUnits="userSpaceOnUse"
      color-interpolation-filters="sRGB"
    >
      <feFlood flood-opacity="0" result="BackgroundImageFix" />
      <feColorMatrix
        in="SourceAlpha"
        type="matrix"
        values="0 0 0 0 0 0 0 0 0 0 0 0 0 0 0 0 0 0 127 0"
        result="hardAlpha"
      />
      <feOffset dy="2.75" />
      <feGaussianBlur stdDeviation="2.75" />
      <feColorMatrix
        type="matrix"
        values="0 0 0 0 0 0 0 0 0 0 0 0 0 0 0 0 0 0 0.28 0"
      />
      <feBlend
        mode="normal"
        in2="BackgroundImageFix"
        result="effect1_dropShadow_1145_444"
      />
      <feBlend
        mode="normal"
        in="SourceGraphic"
        in2="effect1_dropShadow_1145_444"
        result="shape"
      />
    </filter>
    <clipPath id="clip0_1145_444">
      <rect width="159" height="97" fill="white" transform="translate(48 79)" />
    </clipPath>
  </defs>
</svg>
