<svg viewBox="0 0 256 256" fill="none" xmlns="http://www.w3.org/2000/svg">
  <g filter="url(#filter0_d_1432_242)">
    <rect x="25" y="25" width="206" height="206" rx="46" fill="#FF4785" />
  </g>
  <path
    d="M165.007 51.2714L165.5 25L186.5 25.5L187.999 50.3986C188.014 50.8056 187.885 51.2046 187.636 51.523C187.5 51.6957 187.332 51.8389 187.141 51.9442C186.95 52.0495 186.74 52.1147 186.524 52.136C186.307 52.1573 186.089 52.1341 185.882 52.068C185.675 52.0019 185.483 51.8941 185.317 51.7511L177.202 45.3031L167.596 52.6475C167.424 52.7838 167.227 52.8838 167.017 52.9418C166.807 52.9999 166.587 53.0147 166.372 52.9854C166.156 52.9561 165.948 52.8833 165.76 52.7713C165.572 52.6593 165.408 52.5102 165.277 52.333C165.068 52.0219 164.973 51.6465 165.007 51.2714Z"
    fill="white"
  />
  <path
    d="M140.603 99.3447C140.603 104.195 173.508 101.872 177.93 98.4579C177.93 65.3809 160.081 48 127.389 48C94.6967 48 76.3872 65.647 76.3872 92.1263C76.3872 138.239 138.985 139.126 138.985 164.275C139.191 165.793 139.046 167.338 138.561 168.791C138.076 170.245 137.265 171.566 136.189 172.655C135.114 173.744 133.803 174.57 132.358 175.069C130.914 175.569 129.374 175.729 127.857 175.537C117.889 175.537 113.944 170.465 114.413 153.261C114.413 149.528 76.3783 148.357 75.2284 153.261C72.2741 194.94 98.4117 207 128.3 207C157.277 207 180 191.632 180 163.831C180 114.411 116.474 115.741 116.474 91.2484C116.341 89.6841 116.561 88.11 117.117 86.6426C117.674 85.1751 118.552 83.852 119.688 82.7713C120.824 81.6905 122.188 80.8798 123.678 80.3993C125.169 79.9187 126.749 79.7806 128.3 79.9951C132.952 79.9951 141.302 80.8109 140.603 99.3447Z"
    fill="white"
  />
  <defs>
    <filter
      id="filter0_d_1432_242"
      x="19.5"
      y="22.25"
      width="217"
      height="217"
      filterUnits="userSpaceOnUse"
      color-interpolation-filters="sRGB"
    >
      <feFlood flood-opacity="0" result="BackgroundImageFix" />
      <feColorMatrix
        in="SourceAlpha"
        type="matrix"
        values="0 0 0 0 0 0 0 0 0 0 0 0 0 0 0 0 0 0 127 0"
        result="hardAlpha"
      />
      <feOffset dy="2.75" />
      <feGaussianBlur stdDeviation="2.75" />
      <feColorMatrix
        type="matrix"
        values="0 0 0 0 0 0 0 0 0 0 0 0 0 0 0 0 0 0 0.28 0"
      />
      <feBlend
        mode="normal"
        in2="BackgroundImageFix"
        result="effect1_dropShadow_1432_242"
      />
      <feBlend
        mode="normal"
        in="SourceGraphic"
        in2="effect1_dropShadow_1432_242"
        result="shape"
      />
    </filter>
  </defs>
</svg>
