<svg viewBox="0 0 256 256" fill="none" xmlns="http://www.w3.org/2000/svg">
  <g filter="url(#filter0_d_1459_204)">
    <rect x="25" y="25" width="206" height="206" rx="46" fill="#FF3E00" />
  </g>
  <path
    d="M112.934 206.745C105.2 208.737 97.0485 208.351 89.5356 205.635C82.0227 202.918 75.4948 197.998 70.7978 191.511C67.9852 187.708 65.9797 183.365 64.9056 178.752C63.8314 174.138 63.7115 169.353 64.5531 164.691C64.8332 163.16 65.2245 161.651 65.724 160.178L66.6592 157.403L69.1924 159.164C75.0728 163.372 81.6145 166.558 88.5449 168.59L90.3491 169.13L90.165 170.883C89.953 173.434 90.6613 175.976 92.1606 178.045C93.57 180.048 95.5536 181.571 97.8469 182.412C100.14 183.253 102.634 183.371 104.996 182.751C106.063 182.472 107.083 182.036 108.023 181.456L157.361 150.722C158.562 149.99 159.598 149.014 160.401 147.856C161.204 146.697 161.756 145.383 162.022 143.997C162.288 142.6 162.265 141.162 161.956 139.774C161.647 138.386 161.058 137.076 160.226 135.925C158.809 133.968 156.84 132.483 154.574 131.663C152.308 130.842 149.849 130.724 147.515 131.323C146.443 131.602 145.418 132.041 144.474 132.625L125.534 144.345C122.421 146.28 119.035 147.732 115.49 148.651C107.749 150.649 99.59 150.264 92.07 147.546C84.55 144.829 78.0163 139.903 73.3162 133.409C70.5224 129.594 68.5377 125.243 67.4851 120.626C66.4325 116.009 66.3344 111.224 67.1968 106.567C68.066 101.98 69.8844 97.6273 72.5344 93.791C75.1844 89.9547 78.6069 86.7204 82.5801 84.2975L131.978 53.5637C135.091 51.6305 138.477 50.1812 142.022 49.2651C149.763 47.2626 157.924 47.6444 165.445 50.3609C172.967 53.0775 179.503 58.0033 184.203 64.4988C187.015 68.302 189.02 72.6446 190.094 77.2579C191.168 81.8712 191.289 86.6569 190.447 91.3188C190.168 92.8501 189.777 94.3586 189.276 95.8319L188.341 98.6064L185.808 96.8529C179.931 92.6394 173.388 89.4527 166.456 87.4271L164.651 86.8796L164.835 85.1261C165.047 82.5745 164.336 80.0316 162.832 77.9643C161.42 76.0047 159.452 74.5178 157.187 73.697C154.921 72.8762 152.462 72.7596 150.13 73.3623C149.061 73.6403 148.041 74.0794 147.103 74.6645L97.6026 105.295C96.4009 106.023 95.3658 106.997 94.565 108.155C93.7642 109.313 93.2159 110.627 92.9559 112.013C92.6837 113.411 92.7028 114.851 93.0121 116.241C93.3213 117.632 93.914 118.943 94.7527 120.092C96.1704 122.048 98.1396 123.531 100.406 124.35C102.672 125.169 105.13 125.286 107.463 124.687C108.534 124.407 109.559 123.97 110.504 123.392L129.371 111.665C132.482 109.729 135.869 108.279 139.415 107.366C147.156 105.368 155.315 105.752 162.836 108.468C170.357 111.184 176.893 116.108 181.596 122.6C184.401 126.407 186.399 130.751 187.467 135.364C188.535 139.977 188.649 144.761 187.804 149.42C186.94 154.012 185.125 158.371 182.474 162.212C179.824 166.052 176.398 169.289 172.42 171.712L123.03 202.446C119.919 204.382 116.532 205.832 112.986 206.745"
    fill="white"
  />
  <defs>
    <filter
      id="filter0_d_1459_204"
      x="19.5"
      y="22.25"
      width="217"
      height="217"
      filterUnits="userSpaceOnUse"
      color-interpolation-filters="sRGB"
    >
      <feFlood flood-opacity="0" result="BackgroundImageFix" />
      <feColorMatrix
        in="SourceAlpha"
        type="matrix"
        values="0 0 0 0 0 0 0 0 0 0 0 0 0 0 0 0 0 0 127 0"
        result="hardAlpha"
      />
      <feOffset dy="2.75" />
      <feGaussianBlur stdDeviation="2.75" />
      <feColorMatrix
        type="matrix"
        values="0 0 0 0 0 0 0 0 0 0 0 0 0 0 0 0 0 0 0.28 0"
      />
      <feBlend
        mode="normal"
        in2="BackgroundImageFix"
        result="effect1_dropShadow_1459_204"
      />
      <feBlend
        mode="normal"
        in="SourceGraphic"
        in2="effect1_dropShadow_1459_204"
        result="shape"
      />
    </filter>
  </defs>
</svg>
