<svg viewBox="0 0 256 256" fill="none" xmlns="http://www.w3.org/2000/svg">
  <g filter="url(#filter0_d_1119_261)">
    <rect x="25" y="25" width="206" height="206" rx="46" fill="#FFB338" />
  </g>
  <path
    d="M203.709 117.641C197.988 111.921 188.712 111.921 182.991 117.641H153.009L174.21 96.4405C182.301 96.4405 188.859 89.8815 188.859 81.7909C188.859 73.7002 182.301 67.1406 174.21 67.1406C166.119 67.1406 159.561 73.7002 159.561 81.7909L138.359 102.992V73.0087C144.08 67.2877 144.08 58.0122 138.359 52.2912C132.638 46.5696 123.362 46.5696 117.641 52.2912C111.92 58.0129 111.92 67.2884 117.641 73.0087V102.992L96.4406 81.7902C96.4406 73.7002 89.8817 67.1413 81.791 67.1413C73.7004 67.1413 67.1415 73.7002 67.1415 81.7902C67.1415 89.8815 73.7004 96.4405 81.7903 96.4405L102.992 117.641H73.0089C67.2872 111.92 58.0118 111.921 52.2902 117.641C46.5699 123.363 46.5699 132.638 52.2902 138.36C58.0118 144.08 67.2872 144.08 73.0089 138.36H102.991L81.791 159.56C73.7004 159.56 67.1415 166.118 67.1415 174.209C67.1415 182.3 73.7004 188.859 81.7903 188.859C89.8817 188.859 96.4406 182.3 96.4406 174.21L117.641 153.008V182.991C111.92 188.712 111.92 197.988 117.641 203.709C123.363 209.43 132.638 209.43 138.36 203.709C144.08 197.988 144.08 188.712 138.36 182.99V153.008L159.561 174.21C159.561 182.3 166.119 188.859 174.209 188.859C182.301 188.859 188.86 182.3 188.86 174.21C188.86 166.118 182.301 159.56 174.21 159.56L153.008 138.359H182.991C188.713 144.08 197.989 144.08 203.709 138.359C209.43 132.638 209.43 123.362 203.709 117.641Z"
    fill="#FFF"
  />
  <defs>
    <filter
      id="filter0_d_1119_261"
      x="19.5"
      y="22.25"
      width="217"
      height="217"
      filterUnits="userSpaceOnUse"
      color-interpolation-filters="sRGB"
    >
      <feFlood flood-opacity="0" result="BackgroundImageFix" />
      <feColorMatrix
        in="SourceAlpha"
        type="matrix"
        values="0 0 0 0 0 0 0 0 0 0 0 0 0 0 0 0 0 0 127 0"
        result="hardAlpha"
      />
      <feOffset dy="2.75" />
      <feGaussianBlur stdDeviation="2.75" />
      <feColorMatrix
        type="matrix"
        values="0 0 0 0 0 0 0 0 0 0 0 0 0 0 0 0 0 0 0.28 0"
      />
      <feBlend
        mode="normal"
        in2="BackgroundImageFix"
        result="effect1_dropShadow_1119_261"
      />
      <feBlend
        mode="normal"
        in="SourceGraphic"
        in2="effect1_dropShadow_1119_261"
        result="shape"
      />
    </filter>
  </defs>
</svg>
