<svg viewBox="0 0 256 256" fill="none" xmlns="http://www.w3.org/2000/svg">
  <g filter="url(#filter0_d_1130_411)">
    <rect x="25" y="25" width="206" height="206" rx="46" fill="white" />
  </g>
  <path
    fill-rule="evenodd"
    clip-rule="evenodd"
    d="M149.841 189.037V210.607C153.774 212.541 157.966 213.903 162.288 214.649C167.282 215.568 172.352 216.02 177.43 215.999C182.38 216.023 187.319 215.525 192.164 214.516C196.514 213.64 200.664 211.972 204.406 209.594C207.88 207.36 210.744 204.302 212.74 200.694C216.315 193.222 216.786 184.648 214.052 176.832C212.898 173.909 211.179 171.241 208.993 168.979C206.646 166.573 203.98 164.499 201.069 162.813C197.717 160.857 194.235 159.133 190.647 157.653C187.824 156.485 185.284 155.351 183.026 154.25C181.021 153.293 179.101 152.166 177.289 150.882C175.87 149.891 174.638 148.658 173.648 147.24C172.794 145.953 172.348 144.439 172.371 142.895C172.352 141.475 172.75 140.08 173.514 138.881C174.345 137.626 175.453 136.578 176.753 135.816C178.343 134.883 180.072 134.211 181.876 133.826C184.09 133.336 186.353 133.1 188.622 133.123C190.529 133.129 192.434 133.266 194.323 133.531C196.363 133.805 198.381 134.221 200.363 134.775C202.379 135.332 204.351 136.037 206.262 136.884C208.117 137.708 209.891 138.701 211.561 139.851V119.723C208.083 118.412 204.477 117.469 200.801 116.91C196.362 116.267 191.879 115.964 187.394 116.003C182.491 115.977 177.602 116.532 172.83 117.656C168.517 118.638 164.416 120.383 160.721 122.809C157.29 125.087 154.456 128.151 152.459 131.745C150.341 135.736 149.294 140.204 149.417 144.716C149.261 150.684 151.234 156.513 154.985 161.168C159.587 166.329 165.39 170.286 171.884 172.691C174.848 173.91 177.612 175.102 180.175 176.269C182.488 177.295 184.712 178.511 186.822 179.904C188.525 181.008 190.02 182.4 191.239 184.017C192.312 185.484 192.881 187.257 192.862 189.072C192.872 190.432 192.522 191.771 191.846 192.953C191.096 194.223 190.041 195.288 188.777 196.053C187.195 197.015 185.464 197.708 183.654 198.106C181.297 198.632 178.886 198.879 176.471 198.845C171.731 198.836 167.029 198.003 162.577 196.384C157.926 194.712 153.612 192.223 149.841 189.037ZM113.473 135.338H141.698V117.571H63V135.338H91.0978V214.46H113.473V135.338Z"
    fill="#007ACC"
  />
  <defs>
    <filter
      id="filter0_d_1130_411"
      x="19.5"
      y="22.25"
      width="217"
      height="217"
      filterUnits="userSpaceOnUse"
      color-interpolation-filters="sRGB"
    >
      <feFlood flood-opacity="0" result="BackgroundImageFix" />
      <feColorMatrix
        in="SourceAlpha"
        type="matrix"
        values="0 0 0 0 0 0 0 0 0 0 0 0 0 0 0 0 0 0 127 0"
        result="hardAlpha"
      />
      <feOffset dy="2.75" />
      <feGaussianBlur stdDeviation="2.75" />
      <feColorMatrix
        type="matrix"
        values="0 0 0 0 0 0 0 0 0 0 0 0 0 0 0 0 0 0 0.28 0"
      />
      <feBlend
        mode="normal"
        in2="BackgroundImageFix"
        result="effect1_dropShadow_1130_411"
      />
      <feBlend
        mode="normal"
        in="SourceGraphic"
        in2="effect1_dropShadow_1130_411"
        result="shape"
      />
    </filter>
  </defs>
</svg>
