<svg viewBox="0 0 256 256" fill="none" xmlns="http://www.w3.org/2000/svg">
  <g filter="url(#filter0_d_1431_237)">
    <rect x="25" y="25" width="206" height="206" rx="46" fill="#2188B6" />
  </g>
  <path
    d="M201.322 175.249C193.186 177.086 185.526 180.611 178.838 185.596C168.52 192.071 157.372 197.118 145.699 200.599C144.267 202.27 142.289 203.377 140.116 203.722C127.976 205.449 115.755 206.543 103.501 206.999C96.8962 207.05 92.8469 205.295 91.7224 202.592C91.2592 201.497 91.0191 200.321 91.0164 199.133C91.0136 197.944 91.2481 196.767 91.7061 195.67C92.1642 194.573 92.8366 193.579 93.6839 192.745C94.5312 191.911 95.5364 191.255 96.6407 190.814C95.6083 190.181 94.6317 189.461 93.7215 188.662C92.7503 187.691 91.7224 185.743 91.4157 186.459C90.1378 189.582 89.4677 197.214 86.0374 200.656C81.3235 205.42 72.407 203.83 67.1366 201.065C61.3494 197.992 67.5455 190.769 67.5455 190.769C67.0494 191.021 66.5078 191.17 65.9529 191.208C65.398 191.246 64.8411 191.171 64.3155 190.99C63.7898 190.808 63.3061 190.522 62.8931 190.15C62.4801 189.777 62.1463 189.325 61.9116 188.821C58.8954 183.786 57.5681 177.918 58.1235 172.075C59.5786 165.668 63.0623 159.903 68.0566 155.635C67.27 147.126 68.552 138.554 71.7936 130.648C76.075 122.407 82.2319 115.286 89.7687 109.858C89.7687 109.858 78.7622 97.6659 82.8626 86.7059C85.5262 79.5394 86.5996 79.5905 87.4742 79.2781C90.5667 78.325 93.3915 76.6578 95.7206 74.4114C98.8541 70.962 102.751 68.2926 107.099 66.6165C111.448 64.9403 116.128 64.3038 120.766 64.7576C120.766 64.7576 127.445 44.5866 133.562 48.505C136.946 53.6981 139.859 59.1828 142.268 64.8939C142.268 64.8939 149.544 60.6461 150.361 62.2305C154.545 73.3418 155.573 85.3935 153.332 97.0526C150.688 108.242 145.65 118.725 138.565 127.78C137.799 129.058 147.374 133.107 153.417 149.854C159 165.186 154.03 178.02 154.905 179.451C155.058 179.707 155.109 179.809 155.109 179.809C155.109 179.809 161.51 180.32 174.368 172.381C181.482 167.186 189.882 164.036 198.658 163.273C200.233 162.958 201.867 163.273 203.212 164.149C204.557 165.025 205.505 166.394 205.854 167.96C206.202 169.527 205.923 171.168 205.076 172.532C204.229 173.895 202.881 174.867 201.322 175.249Z"
    fill="white"
  />
  <defs>
    <filter
      id="filter0_d_1431_237"
      x="19.5"
      y="22.25"
      width="217"
      height="217"
      filterUnits="userSpaceOnUse"
      color-interpolation-filters="sRGB"
    >
      <feFlood flood-opacity="0" result="BackgroundImageFix" />
      <feColorMatrix
        in="SourceAlpha"
        type="matrix"
        values="0 0 0 0 0 0 0 0 0 0 0 0 0 0 0 0 0 0 127 0"
        result="hardAlpha"
      />
      <feOffset dy="2.75" />
      <feGaussianBlur stdDeviation="2.75" />
      <feColorMatrix
        type="matrix"
        values="0 0 0 0 0 0 0 0 0 0 0 0 0 0 0 0 0 0 0.28 0"
      />
      <feBlend
        mode="normal"
        in2="BackgroundImageFix"
        result="effect1_dropShadow_1431_237"
      />
      <feBlend
        mode="normal"
        in="SourceGraphic"
        in2="effect1_dropShadow_1431_237"
        result="shape"
      />
    </filter>
  </defs>
</svg>
